<svg xmlns="http://www.w3.org/2000/svg" viewBox="0 0 900 600" role="img" aria-label="United States flag">
  <rect width="900" height="600" fill="#fff"/>
  <g fill="#b22234">
    <rect width="900" height="46.154" y="0"/><rect width="900" height="46.154" y="92.308"/>
    <rect width="900" height="46.154" y="184.615"/><rect width="900" height="46.154" y="276.923"/>
    <rect width="900" height="46.154" y="369.231"/><rect width="900" height="46.154" y="461.538"/>
    <rect width="900" height="46.154" y="553.846"/>
  </g>
  <rect width="360" height="323" fill="#3c3b6e"/>
  <g fill="#fff">
    <circle cx="30" cy="28" r="8"/><circle cx="90" cy="28" r="8"/><circle cx="150" cy="28" r="8"/><circle cx="210" cy="28" r="8"/><circle cx="270" cy="28" r="8"/><circle cx="330" cy="28" r="8"/>
    <circle cx="60" cy="60" r="8"/><circle cx="120" cy="60" r="8"/><circle cx="180" cy="60" r="8"/><circle cx="240" cy="60" r="8"/><circle cx="300" cy="60" r="8"/>
    <circle cx="30" cy="92" r="8"/><circle cx="90" cy="92" r="8"/><circle cx="150" cy="92" r="8"/><circle cx="210" cy="92" r="8"/><circle cx="270" cy="92" r="8"/><circle cx="330" cy="92" r="8"/>
    <circle cx="60" cy="124" r="8"/><circle cx="120" cy="124" r="8"/><circle cx="180" cy="124" r="8"/><circle cx="240" cy="124" r="8"/><circle cx="300" cy="124" r="8"/>
    <circle cx="30" cy="156" r="8"/><circle cx="90" cy="156" r="8"/><circle cx="150" cy="156" r="8"/><circle cx="210" cy="156" r="8"/><circle cx="270" cy="156" r="8"/><circle cx="330" cy="156" r="8"/>
    <circle cx="60" cy="188" r="8"/><circle cx="120" cy="188" r="8"/><circle cx="180" cy="188" r="8"/><circle cx="240" cy="188" r="8"/><circle cx="300" cy="188" r="8"/>
    <circle cx="30" cy="220" r="8"/><circle cx="90" cy="220" r="8"/><circle cx="150" cy="220" r="8"/><circle cx="210" cy="220" r="8"/><circle cx="270" cy="220" r="8"/><circle cx="330" cy="220" r="8"/>
    <circle cx="60" cy="252" r="8"/><circle cx="120" cy="252" r="8"/><circle cx="180" cy="252" r="8"/><circle cx="240" cy="252" r="8"/><circle cx="300" cy="252" r="8"/>
    <circle cx="30" cy="284" r="8"/><circle cx="90" cy="284" r="8"/><circle cx="150" cy="284" r="8"/><circle cx="210" cy="284" r="8"/><circle cx="270" cy="284" r="8"/><circle cx="330" cy="284" r="8"/>
  </g>
</svg>
